# xmcd
#
# Track frame offsets:
# 151
# 19288
# 38641
# 59732
# 76269
# 90281
# 106050
# 123761
# 139842
# 162231
# 182716
# 202161
# 221876
# 241335
# 264828
# 287717
# 308944
# 326233
#
# Disc length: 4454 seconds
#
#
# Revision: 0
# Processed by: cddbd v1.5.1PL0 Copyright (c) Steve Scherf et al.
# Submitted via: FreeRIP 2.942 
#
DISCID=02116412
DTITLE=Mariah Carey - The very best
DYEAR=1900
DGENRE=Pop
TTITLE0=My all
TTITLE1=Always be my baby
TTITLE2=One sweet day
TTITLE3=Melta way
TTITLE4=I'am free
TTITLE5=Undrneath the stars
TTITLE6=For ever
TTITLE7=Looking in
TTITLE8=Koney
TTITLE9=Butterfly
TTITLE10=When ever you call
TTITLE11=Fourth of july
TTITLE12=Close my eyes
TTITLE13=The toof
TTITLE14=Baby doll
TTITLE15=Break down
TTITLE16=My all
TTITLE17=Fly a way
EXTD=
EXTT0=
EXTT1=
EXTT2=
EXTT3=
EXTT4=
EXTT5=
EXTT6=
EXTT7=
EXTT8=
EXTT9=
EXTT10=
EXTT11=
EXTT12=
EXTT13=
EXTT14=
EXTT15=
EXTT16=
EXTT17=
PLAYORDER=
